<?xml version="1.0" encoding="UTF-8" standalone="no"?>
<svg
   xmlns:dc="http://purl.org/dc/elements/1.1/"
   xmlns:cc="http://creativecommons.org/ns#"
   xmlns:rdf="http://www.w3.org/1999/02/22-rdf-syntax-ns#"
   xmlns:svg="http://www.w3.org/2000/svg"
   xmlns="http://www.w3.org/2000/svg"
   xml:space="preserve"
   style="enable-background:new 0 0 503.118 503.118;"
   viewBox="0 0 503.118 503.118"
   y="0px"
   x="0px"
   id="Layer_1"
   version="1.1"><metadata
   id="metadata41"><rdf:RDF><cc:Work
       rdf:about=""><dc:format>image/svg+xml</dc:format><dc:type
         rdf:resource="http://purl.org/dc/dcmitype/StillImage" /><dc:title></dc:title></cc:Work></rdf:RDF></metadata><defs
   id="defs39" />
<path
   id="path2"
   d="M335.151,167.967c10.449,10.449,18.808,22.988,25.078,35.527  c22.988,48.065,15.673,108.669-25.078,148.375L223.347,464.718c-51.2,51.2-133.747,51.2-183.902,0  c-51.2-51.2-51.2-133.747,0-183.902l79.412-79.412c-9.404,31.347-8.359,64.784,3.135,95.086l-33.437,33.437  c-22.988,22.988-22.988,61.649,0,85.682c24.033,24.033,61.649,24.033,85.682,0l111.804-111.804  c11.494-11.494,17.763-27.167,17.763-42.841s-6.269-31.347-17.763-42.841c-11.494-11.494-27.167-17.763-42.841-17.763l56.424-56.424  C312.163,149.159,323.657,157.518,335.151,167.967z"
   style="fill:#FFD15C;" />
<path
   id="path4"
   d="M167.967,335.151c-10.449-10.449-18.808-22.988-25.078-35.527  c-22.988-48.065-15.673-108.669,25.078-148.376L279.771,38.4c51.2-51.2,133.747-51.2,183.902,0c51.2,51.2,51.2,133.747,0,183.902  l-79.412,79.412c9.404-31.347,8.359-64.784-3.135-95.086l33.437-33.437c22.988-22.988,22.988-61.649,0-85.682  c-24.033-24.033-61.649-24.033-85.682,0L218.122,200.359c-11.494,11.494-17.763,27.167-17.763,42.841s6.269,31.347,17.763,42.841  c11.494,11.494,27.167,17.763,42.841,17.763l-56.424,56.424C190.955,353.959,179.461,345.6,167.967,335.151z"
   style="fill:#FF7058;" />
<g
   id="g6">
</g>
<g
   id="g8">
</g>
<g
   id="g10">
</g>
<g
   id="g12">
</g>
<g
   id="g14">
</g>
<g
   id="g16">
</g>
<g
   id="g18">
</g>
<g
   id="g20">
</g>
<g
   id="g22">
</g>
<g
   id="g24">
</g>
<g
   id="g26">
</g>
<g
   id="g28">
</g>
<g
   id="g30">
</g>
<g
   id="g32">
</g>
<g
   id="g34">
</g>
</svg>